<svg version="1.1" xmlns="http://www.w3.org/2000/svg" viewBox="0 0 307.54116685450936 298.5581457257684" width="307.54116685450936" height="298.5581457257684"><!-- svg-source:excalidraw --><metadata></metadata><defs><style class="style-fonts">
      </style></defs><rect x="0" y="0" width="307.54116685450936" height="298.5581457257684" fill="#ffffff"></rect><g stroke-linecap="round" transform="translate(10.932207668458432 10) rotate(0 143.30447959302546 139.2790728628842)"><path d="M0 0 C101.56 -0.86, 202.44 0.92, 286.61 0 M0 0 C84.63 0.93, 168.98 0.48, 286.61 0 M286.61 0 C286.78 102.63, 287.15 204.78, 286.61 278.56 M286.61 0 C286.07 103.34, 285.79 205.66, 286.61 278.56 M286.61 278.56 C221.46 276.55, 154.19 277.59, 0 278.56 M286.61 278.56 C208.32 276.98, 131.21 277.9, 0 278.56 M0 278.56 C-0.84 213.2, 0.86 148.85, 0 0 M0 278.56 C-0.11 220.63, 0.43 163.62, 0 0" stroke="#1e1e1e" stroke-width="2" fill="none"></path></g><g stroke-linecap="round"><g transform="translate(8.367773620666412 285.1197683101745) rotate(358.81287452975124 144.41037165709668 -77.28780921871038)" fill-rule="evenodd"><path d="M3.16 -82.05 C3.16 -82.05, 3.16 -82.05, 3.16 -82.05 M3.16 -82.05 C3.16 -82.05, 3.16 -82.05, 3.16 -82.05 M2.64 -69.26 C25.86 -92.99, 46.7 -117.2, 61.68 -137.18 M2.64 -69.26 C19.74 -90.45, 39.17 -110.12, 61.68 -137.18 M2.12 -56.46 C23.99 -80.89, 45.69 -104.99, 88.72 -156.08 M2.12 -56.46 C33.64 -92.61, 63.7 -128.24, 88.72 -156.08 M1.59 -43.67 C21.93 -66.51, 37.93 -86.01, 94.75 -150.83 M1.59 -43.67 C32.53 -78.97, 64.06 -115.32, 94.75 -150.83 M1.07 -30.87 C38.37 -75.34, 77.63 -116.35, 100.79 -145.59 M1.07 -30.87 C26.24 -59.72, 51.1 -88.15, 100.79 -145.59 M0.55 -18.07 C25.64 -46.7, 51.42 -75.22, 106.83 -140.34 M0.55 -18.07 C31.84 -56.04, 64.13 -95.1, 106.83 -140.34 M0.02 -5.28 C40.4 -54, 81.87 -102.37, 112.87 -135.09 M0.02 -5.28 C25.85 -35.09, 50.63 -64.59, 112.87 -135.09 M5.41 0.72 C35.25 -38.1, 68.15 -74.55, 118.9 -129.84 M5.41 0.72 C38.13 -38.13, 72.54 -76.6, 118.9 -129.84 M16.04 0.69 C41.58 -29.22, 69.63 -57.57, 124.94 -124.59 M16.04 0.69 C52.78 -40.55, 90.53 -84.41, 124.94 -124.59 M26.67 0.66 C50.2 -25, 72.31 -53.72, 130.98 -119.34 M26.67 0.66 C61.06 -36.24, 92.26 -74.03, 130.98 -119.34 M37.3 0.62 C71.75 -41.45, 105.99 -79.55, 137.02 -114.09 M37.3 0.62 C64.37 -31.55, 93.83 -64.21, 137.02 -114.09 M47.27 1.34 C77.03 -32.76, 106.87 -67.29, 143.06 -108.85 M47.27 1.34 C74.27 -28.3, 99.21 -57.4, 143.06 -108.85 M57.9 1.31 C92.35 -37.43, 125.53 -78.7, 149.09 -103.6 M57.9 1.31 C91.1 -36.59, 125.52 -74.36, 149.09 -103.6 M68.53 1.27 C93.88 -28.27, 120.12 -59.37, 155.13 -98.35 M68.53 1.27 C88.18 -19.39, 106.8 -39.8, 155.13 -98.35 M78.51 1.99 C103.04 -27, 127.07 -55.9, 161.17 -93.1 M78.51 1.99 C104.3 -27.52, 130.39 -58.54, 161.17 -93.1 M89.14 1.96 C113.85 -27.28, 141.43 -55.68, 167.21 -87.85 M89.14 1.96 C113.5 -27.85, 138.35 -54.48, 167.21 -87.85 M99.77 1.92 C121.22 -24.26, 142.41 -48.92, 173.24 -82.6 M99.77 1.92 C120.95 -22.38, 142.39 -46.13, 173.24 -82.6 M110.4 1.89 C143.69 -36.28, 174.48 -71.98, 203.56 -105.28 M110.4 1.89 C135.49 -25.2, 159.29 -52.41, 203.56 -105.28 M120.37 2.61 C142.87 -23.49, 162.28 -46.04, 225.34 -118.14 M120.37 2.61 C147.63 -28.1, 173.93 -59.43, 225.34 -118.14 M131 2.58 C170.83 -41.88, 206.4 -84.58, 231.38 -112.9 M131 2.58 C155.48 -25.63, 180.54 -54.89, 231.38 -112.9 M141.63 2.54 C161.27 -20.95, 183.25 -45.81, 237.41 -107.65 M141.63 2.54 C162.44 -20.7, 183.08 -43.31, 237.41 -107.65 M151.6 3.26 C174.7 -22.64, 196.62 -48.61, 243.45 -102.4 M151.6 3.26 C172.63 -21.64, 191.95 -44.29, 243.45 -102.4 M162.23 3.23 C184.42 -23.11, 208.2 -45.45, 249.49 -97.15 M162.23 3.23 C194.5 -33.71, 227.56 -72.79, 249.49 -97.15 M172.86 3.19 C190.04 -14.24, 208.46 -36.51, 255.53 -91.9 M172.86 3.19 C192.71 -18.83, 213.04 -41.51, 255.53 -91.9 M183.49 3.16 C212.56 -30.71, 238.59 -62.82, 261.56 -86.65 M183.49 3.16 C213.04 -31.58, 244.93 -65.8, 261.56 -86.65 M193.47 3.88 C218.44 -27.21, 247.24 -54.65, 267.6 -81.4 M193.47 3.88 C213.36 -18.29, 234.91 -42.97, 267.6 -81.4 M204.1 3.84 C224.78 -23.28, 244.95 -45.8, 273.64 -76.16 M204.1 3.84 C226.13 -20.18, 249.54 -46.03, 273.64 -76.16 M214.73 3.81 C240.9 -24.42, 263.72 -55.59, 279.68 -70.91 M214.73 3.81 C229.28 -11.94, 241.89 -27.36, 279.68 -70.91 M225.36 3.77 C240.17 -10.41, 250.8 -25.43, 285.72 -65.66 M225.36 3.77 C238.81 -12.91, 253.9 -29.68, 285.72 -65.66 M235.33 4.49 C250.8 -10.43, 262.09 -26.12, 289.13 -57.39 M235.33 4.49 C250.6 -14, 266.35 -31.56, 289.13 -57.39 M245.96 4.46 C259.07 -8.88, 271.98 -23.11, 288.61 -44.6 M245.96 4.46 C256.15 -8.3, 266.25 -19.24, 288.61 -44.6 M256.59 4.43 C268.65 -8.42, 278.57 -19.31, 288.08 -31.8 M256.59 4.43 C263.74 -3.99, 270.22 -12.2, 288.08 -31.8 M266.57 5.15 C272.15 -4.19, 279.45 -10, 287.56 -19.01 M266.57 5.15 C272.05 -2.13, 279.46 -8.87, 287.56 -19.01 M277.2 5.11 C278.53 3.5, 282.94 -0.73, 287.04 -6.21 M277.2 5.11 C281.07 1.91, 283.6 -1.37, 287.04 -6.21" stroke="#1e1e1e" stroke-width="1" fill="none"></path><path d="M0 0 C0.82 -22.05, 1.46 -46.52, 3.22 -82.12 M0 0 C0.63 -22.84, 2.38 -46.03, 3.22 -82.12 M3.22 -82.12 C23.59 -98.82, 42.43 -118.99, 85.34 -159.41 M3.22 -82.12 C29.17 -107.46, 55.47 -132.04, 85.34 -159.41 M85.34 -159.41 C110.31 -138.4, 132.21 -118.97, 175.51 -80.51 M85.34 -159.41 C106.56 -139.09, 127.78 -120.84, 175.51 -80.51 M175.51 -80.51 C186.4 -90.22, 193.58 -98.43, 220.59 -122.37 M175.51 -80.51 C185.52 -88.76, 193.46 -98.4, 220.59 -122.37 M220.59 -122.37 C242.62 -102.9, 264.06 -85.97, 288.82 -62.26 M220.59 -122.37 C238.14 -105.49, 257.24 -89.08, 288.82 -62.26 M288.82 -62.26 C286.7 -38.61, 287.36 -12.77, 286.61 4.83 M288.82 -62.26 C287.95 -36.78, 287.53 -11.08, 286.61 4.83 M286.61 4.83 C176.12 2.32, 64.78 0.44, 0 0 M286.61 4.83 C176.43 3.13, 66.25 1.66, 0 0 M0 0 C0 0, 0 0, 0 0 M0 0 C0 0, 0 0, 0 0" stroke="#1e1e1e" stroke-width="2" fill="none"></path></g></g><mask></mask></svg>